<svg width="60" height="59" viewBox="0 0 60 59" fill="none" xmlns="http://www.w3.org/2000/svg">
<path d="M20.1176 4.47059L18.2353 5.29412L21.4118 11.6471C24.8235 18.4118 26.3529 20 29.4118 20C33.0588 20 34.5294 18.6471 37.9412 11.7647L41.1765 5.29412L39.5882 4.64706C34.8824 2.88236 35.2353 2.58824 32.4118 11.5294C30.8235 16.6471 29.7059 19.3529 29.4118 18.8235C29.1765 18.4118 27.9412 14.8235 26.7059 10.8235C24.2353 2.82353 24.1176 2.70588 20.1176 4.47059Z" fill="white"/>
<path d="M11.9412 9.58823L9.82353 11.5882L15.4706 17.7059C18.5882 21.0588 21.1765 24 21.1765 24.1765C21.1765 24.4118 17.4706 23.7059 12.9412 22.6471C8.35294 21.6471 4.52941 21 4.35294 21.2353C4.23529 21.4706 3.88235 22.8823 3.58823 24.3529C3.23529 26.2353 3.29412 27.0588 3.7647 27.0588C4.11765 27.1176 7.17647 27.3529 10.5882 27.6471C17.5882 28.1765 19.7647 27.6471 21.5294 24.9412C23.5294 22 22.9412 19.6471 18.8235 13.4118C16.7059 10.2353 14.8235 7.64705 14.5294 7.64705C14.2941 7.64705 13.1176 8.5294 11.9412 9.58823Z" fill="white"/>
<path d="M40.7059 13.2941C36.4118 19.8235 35.8824 21.7647 37.6471 24.5882C39.5294 27.5882 41.5882 28.1765 48.8235 27.5882C52.2353 27.3529 55.2353 27.1176 55.5294 27.1176C56 27.0588 55.5882 22.1765 55 21.1765C54.8824 20.9412 51 21.5882 46.4706 22.647C41.9412 23.647 38.2353 24.3529 38.2353 24.1176C38.2353 23.9412 40.7647 21 43.8824 17.647L49.4706 11.4706L47.4118 9.58822C46.2353 8.5294 45.1176 7.64705 44.8824 7.64705C44.5882 7.64705 42.7647 10.2353 40.7059 13.2941Z" fill="white"/>
<path d="M5.47058 31C3.41176 31.2941 3.23529 31.7647 3.88235 35.2353C4.35293 37.5294 4.58823 37.5294 14 35.3529C17.9412 34.4706 21.1765 33.8823 21.1765 34.0588C21.1765 34.2353 18.6471 37.1765 15.5294 40.5294L9.88235 46.5882L11.8235 48.5882C12.8823 49.7059 14.0588 50.5882 14.3529 50.5882C15 50.5882 21.7059 40.7647 22.5294 38.5882C23.2353 36.8235 22 33.2353 20.1765 31.8235C18.8823 30.7647 17.8823 30.5882 13 30.7059C9.88235 30.7059 6.47058 30.8823 5.47058 31Z" fill="white"/>
<path d="M38.7059 32.2941C37.0588 33.7647 36.7647 34.4118 36.7647 36.5882C36.8235 38.7059 37.4118 40.0588 40.5882 44.8235C42.7059 48 44.5882 50.5882 44.8824 50.5882C45.1177 50.5882 46.2353 49.7059 47.4118 48.647L49.5294 46.7647L43.8824 40.647C40.7647 37.2941 38.2353 34.3529 38.2353 34.1176C38.2353 33.8823 41.9412 34.5294 46.4706 35.5882C51 36.647 54.8824 37.2941 55 37.0588C55.1765 36.7647 55.4706 35.4118 55.6471 33.9412L56 31.3529L52.8824 31C51.1177 30.7647 47.6471 30.5882 45.1765 30.5882C40.9412 30.5882 40.4706 30.7059 38.7059 32.2941Z" fill="white"/>
<path d="M26.2941 39.1765C25.1765 39.7647 23.7647 41.9412 21.4706 46.4706C17.8824 53.5882 17.8824 53.5882 22.3529 54.4118L24.4118 54.7647L26.7059 47.2353C28 43.1176 29.2353 39.4706 29.4706 39.1765C29.7059 38.8823 31.0588 42.2941 32.4118 46.7647C35.2353 55.647 34.8824 55.3529 39.5882 53.5882L41.1765 52.9412L37.9412 46.4706C35.5294 41.647 34.2941 39.8235 33 39.1176C30.8235 38 28.4118 38 26.2941 39.1765Z" fill="white"/>
</svg>
