<svg width="217" height="45" viewBox="0 0 217 45" fill="none" xmlns="http://www.w3.org/2000/svg">
<path d="M15.39 3.41999L13.95 4.04999L16.38 8.90999C18.99 14.085 20.16 15.3 22.5 15.3C25.29 15.3 26.415 14.265 29.025 8.99999L31.5 4.04999L30.285 3.55499C26.685 2.20499 26.955 1.97999 24.795 8.81999C23.58 12.735 22.725 14.805 22.5 14.4C22.32 14.085 21.375 11.34 20.43 8.27999C18.54 2.15999 18.45 2.06999 15.39 3.41999Z" fill="white"/>
<path d="M9.13498 7.33499L7.51498 8.86499L11.835 13.545C14.22 16.11 16.2 18.36 16.2 18.495C16.2 18.675 13.365 18.135 9.89998 17.325C6.38998 16.56 3.46498 16.065 3.32998 16.245C3.23998 16.425 2.96998 17.505 2.74498 18.63C2.47498 20.07 2.51998 20.7 2.87998 20.7C3.14998 20.745 5.48998 20.925 8.09998 21.15C13.455 21.555 15.12 21.15 16.47 19.08C18 16.83 17.55 15.03 14.4 10.26C12.78 7.82999 11.34 5.84999 11.115 5.84999C10.935 5.84999 10.035 6.52499 9.13498 7.33499Z" fill="white"/>
<path d="M31.14 10.17C27.855 15.165 27.45 16.65 28.8 18.81C30.24 21.105 31.815 21.555 37.35 21.105C39.96 20.925 42.255 20.745 42.48 20.745C42.84 20.7 42.525 16.965 42.075 16.2C41.985 16.02 39.015 16.515 35.55 17.325C32.085 18.09 29.25 18.63 29.25 18.45C29.25 18.315 31.185 16.065 33.57 13.5L37.845 8.77499L36.27 7.33499C35.37 6.52499 34.515 5.84999 34.335 5.84999C34.11 5.84999 32.715 7.82999 31.14 10.17Z" fill="white"/>
<path d="M4.18497 23.715C2.60997 23.94 2.47497 24.3 2.96997 26.955C3.32997 28.71 3.50997 28.71 10.71 27.045C13.725 26.37 16.2 25.92 16.2 26.055C16.2 26.19 14.265 28.44 11.88 31.005L7.55997 35.64L9.04497 37.17C9.85497 38.025 10.755 38.7 10.98 38.7C11.475 38.7 16.605 31.185 17.235 29.52C17.775 28.17 16.83 25.425 15.435 24.345C14.445 23.535 13.68 23.4 9.94497 23.49C7.55997 23.49 4.94997 23.625 4.18497 23.715Z" fill="white"/>
<path d="M29.61 24.705C28.35 25.83 28.125 26.325 28.125 27.99C28.17 29.61 28.62 30.645 31.05 34.29C32.67 36.72 34.11 38.7 34.335 38.7C34.515 38.7 35.37 38.025 36.27 37.215L37.89 35.775L33.57 31.095C31.185 28.53 29.25 26.28 29.25 26.1C29.25 25.92 32.085 26.415 35.55 27.225C39.015 28.035 41.985 28.53 42.075 28.35C42.21 28.125 42.435 27.09 42.57 25.965L42.84 23.985L40.455 23.715C39.105 23.535 36.45 23.4 34.56 23.4C31.32 23.4 30.96 23.49 29.61 24.705Z" fill="white"/>
<path d="M20.115 29.97C19.26 30.42 18.18 32.085 16.425 35.55C13.68 40.995 13.68 40.995 17.1 41.625L18.675 41.895L20.43 36.135C21.42 32.985 22.365 30.195 22.545 29.97C22.725 29.745 23.76 32.355 24.795 35.775C26.955 42.57 26.685 42.345 30.285 40.995L31.5 40.5L29.025 35.55C27.18 31.86 26.235 30.465 25.245 29.925C23.58 29.07 21.735 29.07 20.115 29.97Z" fill="white"/>
<path d="M60.3135 29.6748H70.8896V33H55.3037V30.4805L65.6455 15.0264H55.333V11.6719H70.626L70.6406 14.1182L60.3135 29.6748ZM81.7734 33.293C80.5527 33.293 79.4443 33.0928 78.4482 32.6924C77.4521 32.292 76.5977 31.7451 75.8848 31.0518C75.1719 30.3682 74.6201 29.5625 74.2295 28.6348C73.8486 27.6973 73.6582 26.6963 73.6582 25.6318V25.0459C73.6582 23.835 73.8486 22.7314 74.2295 21.7354C74.6104 20.7295 75.1426 19.8652 75.8262 19.1426C76.5098 18.4199 77.3203 17.8584 78.2578 17.458C79.1953 17.0576 80.2158 16.8574 81.3193 16.8574C82.4619 16.8574 83.4775 17.0479 84.3662 17.4287C85.2646 17.7998 86.0264 18.3271 86.6514 19.0107C87.2666 19.6943 87.7354 20.5195 88.0576 21.4863C88.3799 22.4434 88.541 23.5029 88.541 24.665V26.3936H77.7891V26.4375C77.9258 27.0723 78.1016 27.585 78.3164 27.9756C78.5312 28.3564 78.8193 28.7031 79.1807 29.0156C79.5518 29.3379 79.9766 29.5869 80.4551 29.7627C80.9336 29.9385 81.4561 30.0264 82.0225 30.0264C82.8232 30.0264 83.5996 29.875 84.3516 29.5723C85.1035 29.2695 85.7139 28.8154 86.1826 28.21L88.2188 30.4072C87.7012 31.1396 86.8809 31.8037 85.7578 32.3994C84.6348 32.9951 83.3066 33.293 81.7734 33.293ZM81.29 20.1533C80.8311 20.1533 80.4111 20.2363 80.0303 20.4023C79.6494 20.5586 79.3174 20.7881 79.0342 21.0908C78.7412 21.3936 78.4971 21.7549 78.3018 22.1748C78.1064 22.5947 77.96 23.0635 77.8623 23.5811H84.542V23.2588C84.542 22.8291 84.4639 22.4238 84.3076 22.043C84.1514 21.6621 83.9365 21.3301 83.6631 21.0469C83.3896 20.7734 83.0527 20.5586 82.6523 20.4023C82.2617 20.2363 81.8076 20.1533 81.29 20.1533ZM92.1006 33V17.1504H95.792L96.041 19.3477C96.2461 19.0547 96.4707 18.7861 96.7148 18.542C96.959 18.2979 97.2178 18.0781 97.4912 17.8828C97.96 17.5508 98.4727 17.2969 99.0293 17.1211C99.5859 16.9453 100.177 16.8574 100.802 16.8574C101.603 16.8574 102.335 16.9746 102.999 17.209C103.663 17.4434 104.239 17.8145 104.728 18.3223C105.206 18.8398 105.577 19.5039 105.841 20.3145C106.114 21.1152 106.251 22.0918 106.251 23.2441V33H102.179V23.3027C102.179 22.6777 102.105 22.165 101.959 21.7646C101.822 21.3545 101.622 21.0322 101.358 20.7979C101.095 20.5635 100.777 20.4023 100.406 20.3145C100.035 20.2168 99.6152 20.168 99.1465 20.168C98.7559 20.168 98.3945 20.2119 98.0625 20.2998C97.7402 20.3877 97.4521 20.5195 97.1982 20.6953C96.9932 20.8223 96.8076 20.9736 96.6416 21.1494C96.4756 21.3252 96.3242 21.5205 96.1875 21.7354V33H92.1006ZM111.363 33L108.434 11.6719H112.198L113.619 23.5957L113.722 24.4307L113.854 23.5518L115.538 11.6719H118.482L120.27 23.6396L120.401 24.5186L120.504 23.625L121.954 11.6719H125.733L122.774 33H119.054L117.193 21.4863L117.032 20.4023L116.871 21.4863L115.084 33H111.363ZM138.038 33C137.94 32.8047 137.857 32.5801 137.789 32.3262C137.721 32.0723 137.662 31.8037 137.613 31.5205C137.389 31.7646 137.13 31.9941 136.837 32.209C136.544 32.4238 136.222 32.6094 135.87 32.7656C135.509 32.9316 135.113 33.0586 134.684 33.1465C134.254 33.2441 133.79 33.293 133.292 33.293C132.481 33.293 131.734 33.1758 131.051 32.9414C130.377 32.707 129.796 32.3799 129.308 31.96C128.819 31.54 128.438 31.042 128.165 30.4658C127.892 29.8799 127.755 29.2451 127.755 28.5615C127.755 27.6826 127.926 26.9062 128.268 26.2324C128.609 25.5488 129.122 24.9873 129.806 24.5479C130.421 24.1475 131.178 23.8447 132.076 23.6396C132.984 23.4248 134.024 23.3174 135.196 23.3174H137.467V22.3799C137.467 22.0088 137.408 21.6768 137.291 21.3838C137.174 21.0811 136.998 20.8223 136.764 20.6074C136.52 20.3828 136.212 20.2119 135.841 20.0947C135.479 19.9678 135.055 19.9043 134.566 19.9043C134.137 19.9043 133.766 19.958 133.453 20.0654C133.141 20.1631 132.887 20.3047 132.691 20.4902C132.516 20.6562 132.384 20.8564 132.296 21.0908C132.218 21.3252 132.179 21.584 132.179 21.8672H128.106C128.106 21.1934 128.253 20.5537 128.546 19.9482C128.849 19.3428 129.288 18.8105 129.864 18.3516C130.431 17.8926 131.124 17.5312 131.944 17.2676C132.774 16.9941 133.722 16.8574 134.786 16.8574C135.743 16.8574 136.632 16.9746 137.452 17.209C138.282 17.4434 139 17.79 139.605 18.249C140.211 18.708 140.685 19.2891 141.026 19.9922C141.368 20.6855 141.539 21.4912 141.539 22.4092V29.2061C141.539 30.0557 141.593 30.7588 141.7 31.3154C141.808 31.8721 141.964 32.3506 142.169 32.751V33H138.038ZM134.156 30.1436C134.566 30.1436 134.947 30.0947 135.299 29.9971C135.65 29.8994 135.968 29.7725 136.251 29.6162C136.534 29.46 136.778 29.2842 136.983 29.0889C137.188 28.8838 137.35 28.6787 137.467 28.4736V25.749H135.387C134.752 25.749 134.21 25.8125 133.761 25.9395C133.312 26.0566 132.945 26.2227 132.662 26.4375C132.379 26.6621 132.169 26.9307 132.032 27.2432C131.896 27.5459 131.827 27.8779 131.827 28.2393C131.827 28.5225 131.876 28.7861 131.974 29.0303C132.081 29.2646 132.232 29.4648 132.428 29.6309C132.623 29.7871 132.862 29.9141 133.146 30.0117C133.438 30.0996 133.775 30.1436 134.156 30.1436ZM147.003 10.5H155.865V29.6895H160.406V33H147.003V29.6895H151.749V13.8252H147.003V10.5ZM165.021 10.5H173.883V29.6895H178.424V33H165.021V29.6895H169.767V13.8252H165.021V10.5ZM189.879 33.293C188.658 33.293 187.55 33.0928 186.554 32.6924C185.558 32.292 184.703 31.7451 183.99 31.0518C183.277 30.3682 182.726 29.5625 182.335 28.6348C181.954 27.6973 181.764 26.6963 181.764 25.6318V25.0459C181.764 23.835 181.954 22.7314 182.335 21.7354C182.716 20.7295 183.248 19.8652 183.932 19.1426C184.615 18.4199 185.426 17.8584 186.363 17.458C187.301 17.0576 188.321 16.8574 189.425 16.8574C190.567 16.8574 191.583 17.0479 192.472 17.4287C193.37 17.7998 194.132 18.3271 194.757 19.0107C195.372 19.6943 195.841 20.5195 196.163 21.4863C196.485 22.4434 196.646 23.5029 196.646 24.665V26.3936H185.895V26.4375C186.031 27.0723 186.207 27.585 186.422 27.9756C186.637 28.3564 186.925 28.7031 187.286 29.0156C187.657 29.3379 188.082 29.5869 188.561 29.7627C189.039 29.9385 189.562 30.0264 190.128 30.0264C190.929 30.0264 191.705 29.875 192.457 29.5723C193.209 29.2695 193.819 28.8154 194.288 28.21L196.324 30.4072C195.807 31.1396 194.986 31.8037 193.863 32.3994C192.74 32.9951 191.412 33.293 189.879 33.293ZM189.396 20.1533C188.937 20.1533 188.517 20.2363 188.136 20.4023C187.755 20.5586 187.423 20.7881 187.14 21.0908C186.847 21.3936 186.603 21.7549 186.407 22.1748C186.212 22.5947 186.065 23.0635 185.968 23.5811H192.647V23.2588C192.647 22.8291 192.569 22.4238 192.413 22.043C192.257 21.6621 192.042 21.3301 191.769 21.0469C191.495 20.7734 191.158 20.5586 190.758 20.4023C190.367 20.2363 189.913 20.1533 189.396 20.1533ZM207.677 13.2686V17.1504H213.595V20.1533H207.677V26.9648C207.677 27.541 207.74 28.0244 207.867 28.415C208.004 28.7959 208.194 29.0986 208.438 29.3232C208.683 29.5576 208.976 29.7236 209.317 29.8213C209.669 29.9189 210.06 29.9678 210.489 29.9678C210.802 29.9678 211.119 29.9531 211.441 29.9238C211.773 29.8945 212.091 29.8555 212.394 29.8066C212.687 29.7676 212.96 29.7236 213.214 29.6748C213.478 29.626 213.702 29.5771 213.888 29.5283L214.283 32.3262C214 32.4922 213.668 32.6387 213.287 32.7656C212.906 32.8828 212.501 32.9805 212.071 33.0586C211.642 33.1367 211.192 33.1953 210.724 33.2344C210.265 33.2832 209.811 33.3076 209.361 33.3076C208.492 33.3076 207.701 33.1953 206.988 32.9707C206.285 32.7363 205.685 32.375 205.187 31.8867C204.679 31.4082 204.288 30.7979 204.015 30.0557C203.741 29.3037 203.604 28.4053 203.604 27.3604V20.1533H199.986V17.1504H203.604V13.2686H207.677Z" fill="white"/>
</svg>
